<?xml version="1.0" encoding="UTF-8" standalone="no"?>
<!--
     By Rolando (File:Kit_baseball_cap.png) [CC BY-SA 3.0  (https://creativecommons.org/licenses/by-sa/3.0)], via Wikimedia Commons
     https://commons.wikimedia.org/wiki/File:Kit_baseball_cap.svg
-->

<!-- Generator: Adobe Illustrator 15.0.0, SVG Export Plug-In . SVG Version: 6.00 Build 0)  -->

<svg
   xmlns:dc="http://purl.org/dc/elements/1.1/"
   xmlns:cc="http://creativecommons.org/ns#"
   xmlns:rdf="http://www.w3.org/1999/02/22-rdf-syntax-ns#"
   xmlns:svg="http://www.w3.org/2000/svg"
   xmlns="http://www.w3.org/2000/svg"
   xmlns:sodipodi="http://sodipodi.sourceforge.net/DTD/sodipodi-0.dtd"
   xmlns:inkscape="http://www.inkscape.org/namespaces/inkscape"
   version="1.1"
   id="Layer_1"
   x="0px"
   y="0px"
   width="26"
   height="17"
   viewBox="0 0 26 17"
   enable-background="new 0 0 100 30"
   xml:space="preserve"
   sodipodi:docname="baseball_cap.svg"
   inkscape:version="0.92.2 5c3e80d, 2017-08-06"><metadata
     id="metadata4590"><rdf:RDF><cc:Work
         rdf:about=""><dc:format>image/svg+xml</dc:format><dc:type
           rdf:resource="http://purl.org/dc/dcmitype/StillImage" /><dc:title /></cc:Work></rdf:RDF></metadata><defs
     id="defs4588" /><sodipodi:namedview
     pagecolor="#ffffff"
     bordercolor="#666666"
     borderopacity="1"
     objecttolerance="10"
     gridtolerance="10"
     guidetolerance="10"
     inkscape:pageopacity="0"
     inkscape:pageshadow="2"
     inkscape:window-width="2305"
     inkscape:window-height="1231"
     id="namedview4586"
     showgrid="false"
     fit-margin-top="0"
     fit-margin-left="0"
     fit-margin-right="0"
     fit-margin-bottom="0"
     inkscape:zoom="20.01"
     inkscape:cx="13"
     inkscape:cy="3"
     inkscape:window-x="0"
     inkscape:window-y="0"
     inkscape:window-maximized="0"
     inkscape:current-layer="Layer_1" /><path
     d="M -37,-1 V 29 H 63 V -1 Z m 61,17.5 c -1,0 -3.5,-3 -11,-3 -7.5,0 -10,3 -11,3 -0.5,0 -1.5,-0.5 -1.5,-2 0,-0.885 0.354,-1.578 0.994,-2.12 C 0.557,1.994 7.024,0.5 13,0.5 c 5.976,0 12.442,1.494 11.507,11.88 0.639,0.542 0.993,1.234 0.993,2.12 0,1.5 -1,2 -1.5,2 z"
     id="path4575"
     inkscape:connector-curvature="0"
     style="fill:#ffffff;fill-opacity:0" /><path
     d="m 13,0.5 c 3,1.5 5.5,5.5 5.5,10"
     id="path4577"
     inkscape:connector-curvature="0"
     style="fill:none;stroke:#939598;stroke-linejoin:round" /><path
     d="M 13,0.5 C 10,2 7.5,6 7.5,10.5"
     id="path4579"
     inkscape:connector-curvature="0"
     style="fill:none;stroke:#939598;stroke-linejoin:round" /><path
     d="M 1.5,12.5 C 0.5,2 7,0.5 13,0.5 c 6,0 12.5,1.5 11.5,12"
     id="path4581"
     inkscape:connector-curvature="0"
     style="fill:none;stroke:#000000;stroke-linejoin:round" /><path
     d="m 13,10.5 c -7,0 -12.5,0.5 -12.5,4 0,1.5 1,2 1.5,2 1,0 3.5,-3 11,-3 7.5,0 10,3 11,3 0.5,0 1.5,-0.5 1.5,-2 0,-3.5 -5.5,-4 -12.5,-4 z"
     id="path4583"
     inkscape:connector-curvature="0"
     style="fill:none;stroke:#000000;stroke-linejoin:round" /></svg>