<?xml version="1.0" encoding="utf-8"?>
<!-- Generator: Adobe Illustrator 22.0.1, SVG Export Plug-In . SVG Version: 6.00 Build 0)  -->
<svg version="1.1" id="Layer_1" xmlns="http://www.w3.org/2000/svg" xmlns:xlink="http://www.w3.org/1999/xlink" x="0px" y="0px"
	 viewBox="0 0 167.3 180" style="enable-background:new 0 0 167.3 180;" xml:space="preserve">
<style type="text/css">
	.st0{fill:#009444;}
	.st1{fill:#FBB040;}
	.st2{fill:#FFFFFF;}
</style>
<g>
	<g>
		<path class="st0" d="M4.1,96.3L4,95.7C3.7,94.1-3.4,56.6,18.4,30C32.1,13.4,54.1,4.9,83.7,4.9s51.5,8.4,65.2,25.1
			c21.9,26.6,14.8,64.1,14.5,65.7l-0.1,0.6l-79.6,79.6L4.1,96.3z"/>
		<path d="M83.7,6.9c95.2,0,77.7,88.4,77.7,88.4l-77.7,77.7L5.9,95.3C5.9,95.3-11.5,6.9,83.7,6.9 M83.7,2.9
			c-30.2,0-52.7,8.7-66.8,25.8C-5.6,56.1,1.7,94.5,2,96.1l0.2,1.2l0.9,0.9l77.7,77.7l2.8,2.8l2.8-2.8l77.7-77.7l0.9-0.9l0.2-1.2
			c0.3-1.6,7.6-40-14.9-67.4C136.4,11.6,113.9,2.9,83.7,2.9L83.7,2.9z"/>
	</g>
	<path class="st1" d="M136.6,107.3l-52.9,52.9l-52.9-52.9c0,0-11.9-60.2,52.9-60.2S136.6,107.3,136.6,107.3z"/>
	<circle class="st2" cx="83.7" cy="112.9" r="10.7"/>
	<path class="st0" d="M96.1,148.2"/>
	<path class="st0" d="M69.1,148.2"/>
	
		<rect x="59.1" y="88.4" transform="matrix(0.7071 0.7071 -0.7071 0.7071 104.3399 -26.0927)" class="st0" width="49.1" height="49.1"/>
	
		<rect x="76.5" y="74" transform="matrix(0.7071 -0.7071 0.7071 0.7071 -32.9193 82.9473)" class="st2" width="14.4" height="14.4"/>
	
		<rect x="76.5" y="137.4" transform="matrix(0.7071 -0.7071 0.7071 0.7071 -77.7355 101.5108)" class="st2" width="14.4" height="14.4"/>
	
		<rect x="108.2" y="105.7" transform="matrix(0.7071 -0.7071 0.7071 0.7071 -46.0457 114.6372)" class="st2" width="14.4" height="14.4"/>
	
		<rect x="44.6" y="105.7" transform="matrix(0.7071 -0.7071 0.7071 0.7071 -64.6526 69.716)" class="st2" width="14.4" height="14.4"/>
	<circle class="st2" cx="83.1" cy="112.9" r="10.1"/>
</g>
</svg>
